<?xml version="1.0" encoding="utf-8"?>
<!-- Generator: Adobe Illustrator 16.0.0, SVG Export Plug-In . SVG Version: 6.00 Build 0)  -->
<!DOCTYPE svg PUBLIC "-//W3C//DTD SVG 1.1//EN" "http://www.w3.org/Graphics/SVG/1.1/DTD/svg11.dtd">
<svg version="1.1" id="Layer_1" xmlns="http://www.w3.org/2000/svg" xmlns:xlink="http://www.w3.org/1999/xlink" x="0px" y="0px"
	 width="365px" height="216.353px" viewBox="0 0 365 216.353" enable-background="new 0 0 365 216.353" xml:space="preserve">
<g>
	<path fill-rule="evenodd" clip-rule="evenodd" d="M133.715,78.994c1.196-2.203,2.457-4.374,3.573-6.619
		c4.916-9.881,10.722-19.334,13.229-30.324c1.365-5.986,5.048-10.509,10.963-12.994c4.547-1.907,6.695-1.431,9.589,2.587
		c5.251,7.294,4.773,15.225-1.752,21.718c-2.558,2.545-5.855,4.343-8.782,6.526c-0.795,0.593-2.117,1.375-2.089,2.024
		c0.127,3.237,0.394,6.507,1.056,9.673c0.738,3.521,2.979,3.427,5.73,1.902c6.18-3.421,9.414-9.33,12.897-15.012
		c1.534-2.5,2.575-5.317,4.221-7.731c0.649-0.953,2.334-1.197,3.55-1.763c0.257,1.287,1.146,2.901,0.674,3.811
		c-4.043,7.798-7.836,15.799-12.68,23.093c-5.482,8.259-16.189,7.677-21.289-0.69c-1.993-3.268-3.416-6.883-5.371-10.901
		c-1.889,3.995-3.867,7.705-5.422,11.582c-2.021,5.042-4.899,9.111-10.773,9.239c-5.57,0.122-9.094-3.312-11.322-10.074
		c-0.485-1.478-0.907-2.976-1.441-4.745c-2.357,4.001-4.287,7.969-6.846,11.477c-5.046,6.919-11.724,8.002-18.371,2.568
		c-3.586-2.93-6.199-7.05-9.312-10.704c-1.184,2.284-2.638,5.215-4.211,8.083c-0.959,1.752-1.971,3.502-3.178,5.086
		c-4.873,6.399-10.706,7.523-17.518,3.099c-5.521-3.586-8.752-8.739-9.812-15.375c-3.559-22.244,1.901-43.249,8.635-64.073
		c1.447-4.468,5.836-6.003,10.012-3.934c0.24,0.118,0.495,0.218,0.713,0.37c3.299,2.29,8.551,2.319,9.73,6.992
		c1.84,7.299,2.831,14.733-0.82,21.93c-3.148,6.21-7.033,11.572-13.735,14.546c-1.56,0.693-3.194,3.016-3.364,4.732
		c-0.867,8.726-1.692,17.553,1.381,26.067c1.538,4.258,4.488,5.127,7.447,1.709c3.527-4.079,6.289-8.834,9.25-13.381
		c4.153-6.382,4.619-13.531,4.993-20.97c0.749-14.889,4.655-29.239,9.522-43.288c1.442-4.167,5.859-5.572,9.859-3.602
		c0.239,0.119,0.494,0.215,0.711,0.368c3.283,2.317,8.562,2.31,9.746,6.979c1.854,7.297,2.836,14.735-0.793,21.935
		c-3.135,6.216-7.039,11.564-13.727,14.552c-1.566,0.7-3.238,2.995-3.4,4.694c-0.834,8.73-1.676,17.559,1.371,26.078
		c1.544,4.319,4.457,5.216,7.422,1.788c3.612-4.175,6.441-9.05,9.424-13.741c1.709-2.686,3.438-5.475,4.465-8.455
		c1.282-3.728,1.936-7.684,2.697-11.573c0.438-2.223,0.473-4.52,0.834-6.76c0.359-2.238-0.093-5.216,3.646-4.978
		c3.339,0.212,5.997,2.695,5.954,5.855c-0.07,5.04-0.504,10.076-0.576,15.116c-0.1,6.797-0.076,13.598,0.062,20.394
		c0.03,1.386,0.791,2.755,1.215,4.131C132.373,78.337,133.043,78.667,133.715,78.994z M62.711,38.424
		c0.406,0.128,0.812,0.258,1.219,0.386c5.002-5.891,8.48-12.463,7.812-20.615c-0.137-1.685-1.274-3.288-1.949-4.929
		c-0.259,0.165-0.515,0.326-0.771,0.489C66.917,21.979,64.814,30.202,62.711,38.424z M104.08,8.647
		c-2.152,8.407-4.256,16.636-6.525,25.496C105.955,29.19,109.758,12.41,104.08,8.647z M158.949,55.728
		c5.395-4.852,8.617-10.732,9.268-18.702C161.412,42.016,159.688,48.632,158.949,55.728z"/>
	<path fill-rule="evenodd" clip-rule="evenodd" d="M15.549,90.392c1.594-2.835,3.438-5.559,4.732-8.524
		c3.467-7.938,6.51-16.069,10.201-23.897c0.67-1.421,3.704-2.562,5.49-2.369c1.573,0.166,4.041,2.259,4.201,3.71
		c1.354,12.339,2.332,24.719,3.23,37.102c0.095,1.292-1.054,3.817-1.609,3.812c-2.069-0.016-4.684-0.234-6.091-1.494
		c-3.739-3.346-5.123-8.005-5.34-12.988c-0.142-3.263-0.311-6.524-1.19-9.882c-1.435,4.332-2.979,8.634-4.279,13.006
		c-1.829,6.141-6.094,11.362-9.455,11.281C9.24,100.001,3.446,94.737,1.945,87.832c-1.523-7.006-0.271-13.843,1.553-20.581
		C5.31,60.56,8.373,54.519,13.802,49.944c1.118-0.942,2.314-2.483,3.499-2.504c2.485-0.048,5.524,0.004,7.348,1.352
		c2.405,1.781,0.172,3.96-1.221,5.768C14.236,66.474,11.344,78.065,15.549,90.392z"/>
	<path fill-rule="evenodd" clip-rule="evenodd" d="M134.43,17.627c0.533,3.899-3.987,8.072-7.666,6.671
		c-1.235-0.471-2.48-2.696-2.52-4.153c-0.082-3.002,0.271-5.818-2.967-7.57c-0.58-0.313-1.031-1.746-0.808-2.413
		c0.217-0.652,1.333-1.293,2.132-1.41C127.291,8.065,133.799,13.018,134.43,17.627z"/>
	<g>
		<path fill-rule="evenodd" clip-rule="evenodd" d="M190.4,145.09c1.57-5.075,3.205-10.95,5.225-16.691
			c1.219-3.469,3.305-7.234,7.408-6.863c4.572,0.416,8.785,2.845,10.312,7.708c1.221,3.891,1.805,7.983,2.912,13.104
			c2.045-4.994,3.561-9.153,5.443-13.137c1.297-2.744,3.03-5.299,4.709-7.844c2.006-3.046,4.86-3.564,7.984-1.979
			c3.271,1.662,6.288,3.877,6.537,7.888c0.623,9.983,0.957,19.984,1.483,29.974c0.056,1.025,0.625,2.027,0.963,3.036
			c0.78,2.331,1.037,5.124-1.571,5.801c-1.879,0.488-5.395-0.352-6.225-1.756c-2.335-3.946-4.454-8.357-5.188-12.827
			c-1.126-6.816-1.006-13.837-1.441-20.769c-0.065-1.037-0.274-2.066-0.419-3.099c-0.404-0.265-0.807-0.53-1.208-0.797
			c-0.246,0.86-0.387,1.771-0.757,2.574c-4.789,10.42-6.908,21.527-8.68,32.753c-0.287,1.81-1.532,4.76-2.623,4.899
			c-2.875,0.362-6.752,0.373-7.681-3.343c-1.737-6.961-3.046-14.048-4.15-21.142c-0.64-4.101-0.528-8.319-0.761-12.483
			c-0.537-0.067-1.072-0.135-1.611-0.204c-1.566,5.549-3.4,11.04-4.637,16.662c-1.623,7.376-2.852,14.845-4.088,22.301
			c-0.536,3.231-2.266,3.955-5.104,3.12c-5.932-1.747-8.38-6.192-9.191-11.897c-0.182-1.286-0.358-2.572-0.604-4.344
			c-3.503,5.913-6.851,11.257-9.878,16.775c-2.547,4.639-6.835,7.122-11.475,7.754c-4.664,0.638-8.8-2-11.183-6.389
			c-1.815-3.349-3.384-6.837-5.077-10.294c-2.434,4.251-4.54,8.747-7.382,12.716c-5.181,7.232-11.862,7.798-19.077,2.396
			c-7.734-5.791-8.649-14.282-9.498-22.861c-0.079-0.795-0.035-1.602-0.064-2.404c-0.004-0.119-0.118-0.232-0.205-0.394
			c-3.959,2.731-7.909,5.456-11.894,8.206c7.365,14.132,5.604,28.807,3.086,43.483c-0.954,5.56-5.511,11.04-9.453,10.877
			c-2.968-0.121-6.321-1.117-8.712-2.829c-4.999-3.583-7.086-9.227-8.471-15.053c-4.829-20.312-7.266-40.8-3.854-61.604
			c1.729-10.545,5.539-20.371,11.748-29.117c2.143-3.024,4.688-6.255,9.029-5.613c3.971,0.587,9.484,6.694,9.88,10.536
			c0.801,7.774-2.248,14.604-5.294,21.484c-2.665,6.023-7.744,9.548-12.582,13.468c-1.312,1.062-2.604,3.195-2.521,4.765
			c0.504,9.705,1.059,19.433,2.287,29.066c0.938,7.357,2.832,14.601,4.459,21.859c0.328,1.462,1.375,2.761,2.729,5.358
			c1.756-3.354,3.428-5.582,4.146-8.088c3.108-10.83,3.733-21.77,0.42-32.716c-0.946-3.128-2.532-5.612-6.199-5.951
			c-0.516-0.048-1.098-0.215-1.498-0.524c-1.098-0.84-2.11-1.788-3.158-2.694c1.277-0.747,2.523-2.076,3.838-2.146
			c8.255-0.445,14.688-4.486,20.389-9.972c1.021-0.984,1.695-2.57,2.025-3.994c3.141-13.503,6.004-27.074,9.313-40.535
			c1.423-5.782,5.552-6.575,11.142-4.792c9.637,3.073,11.661,10.247,11.184,18.689c-0.593,10.502-5.221,19.069-14.869,24.003
			c-3.446,1.765-4.968,3.987-5.038,7.659c-0.151,7.84-1.054,15.757,1.466,23.384c1.732,5.241,4.699,6.043,8.369,1.773
			c3.506-4.081,6.143-8.935,8.975-13.565c4.305-7.042,7.4-14.638,10.23-22.38c1.785-4.888,6.068-7.332,10.735-8.948
			c1.29-0.446,2.972-0.521,4.25-0.092c3.869,1.297,7.671,8.498,7.188,12.669c-1.039,8.976-5.382,15.396-13.957,18.706
			c-0.248,0.095-0.48,0.234-0.709,0.379c-3.633,2.321-1.181,5.905-1.492,8.806c-0.184,1.72,1.859,3.885,3.332,5.443
			c0.395,0.415,2.457-0.5,3.607-1.094c5.904-3.045,8.865-8.757,12.274-13.993c2.032-3.125,4.341-6.35,5.235-9.86
			c1.023-4.019,0.71-8.399,0.786-12.625c0.052-2.8-0.458-5.625-0.251-8.403c0.082-1.109,1.207-2.755,2.207-3.082
			c5.073-1.655,10.002,2.012,10.534,7.292C189.01,136.16,189.833,141.017,190.4,145.09z M75.989,141.037
			c7.315-5.843,14.374-24.647,11.674-30.71C80.871,119.621,78.277,130.22,75.989,141.037z M118.672,128.104
			c6.432-3.979,10.566-15.509,8.736-22.008c-0.326-1.155-1.377-2.106-2.205-3.319C122.914,111.646,120.793,119.874,118.672,128.104z
			 M151.243,154.966c5.614-5.234,8.406-11.336,9.306-18.627C155.516,137.814,150.935,147.733,151.243,154.966z"/>
		<path fill-rule="evenodd" clip-rule="evenodd" d="M338.814,141.008c8.734-8.441,11.069-20.411,17.316-29.849
			c5.463,1.873,7.518,5.527,7.547,10.288c0.068,9.606,0.168,19.227-0.283,28.814c-0.479,10.215-1.534,20.408-2.44,30.599
			c-0.491,5.534-3.126,10.172-6.798,14.163c-4.389,4.77-13.419,5.187-18.271,0.92c-0.91-0.803-1.631-2.17-1.818-3.374
			c-0.846-5.279-0.262-10.434,2.394-15.154c4.844-8.614,9.833-17.151,14.703-25.752c0.712-1.252,1.507-2.654,1.602-4.03
			c0.452-6.636,0.68-13.289,0.139-20.407c-1.463,2.935-2.995,5.839-4.363,8.816c-2.366,5.155-4.448,10.447-7.009,15.498
			c-1.309,2.574-3.927,2.247-5.891,0.745c-2.703-2.073-5.099-4.548-7.406-6.649c-2.51,2.592-4.94,5.585-7.852,8
			c-5.777,4.791-15.197,1.945-16.684-5.305c-1.438-6.999-1.921-14.204-2.631-21.337c-0.283-2.824-0.051-5.7-0.051-9.632
			c-4.912,6.618-6.574,13.359-8.301,19.996c-1.336,5.125-2.012,10.42-3.051,15.625c-0.574,2.871,0.012,6.688-3.925,7.457
			c-4.032,0.788-8.321-2.889-8.961-7.354c-0.466-3.259-0.509-6.581-1.485-10.125c-2.068,4.396-4.332,8.718-6.154,13.214
			c-1.957,4.829-4.929,8.411-10.33,8.736c-5.329,0.319-9.283-3.292-11.346-9.52c-2.84-8.567-1.059-17.189-0.243-25.78
			c0.405-4.254,1.107-8.479,1.743-12.707c0.304-2.043,0.132-4.825,3.195-4.604c3,0.219,6.02,1.328,6.284,4.997
			c0.278,3.833,0.139,7.7,0.067,11.551c-0.156,8.123-0.457,16.246-0.521,24.372c-0.016,1.509,0.785,3.023,1.212,4.536
			c0.421,0.181,0.843,0.362,1.261,0.541c2.094-3.222,4.342-6.354,6.244-9.686c3.427-6.01,6.797-12.063,9.852-18.267
			c0.884-1.78,0.801-4.133,0.793-6.224c-0.01-2.8-0.393-5.599-0.58-8.4c-0.178-2.666-0.832-5.551,3.182-6.11
			c4.162-0.582,7.492,1.431,8.147,5.241c0.583,3.396,0.976,6.824,1.489,10.515c1.968-3.634,3.914-7.172,5.806-10.737
			c3.786-7.124,13.083-4.596,15.489,0.223c1.55,3.096,2.337,6.778,2.605,10.263c0.46,5.975,0.178,12.005,0.364,18.006
			c0.054,1.804,0.65,3.591,1.002,5.416c6.72-1.961,11.799-9.786,11.388-16.856c-0.643-11.082,2.878-20.513,11.423-27.815
			c3.136-2.682,6.676-4.11,11.017-3.956c3.484,0.122,5.068,2.219,6.297,4.708c1.072,2.162-0.221,3.55-2.261,4.763
			c-12.474,7.405-15.228,16.169-14.788,30.024C337.939,139.73,338.273,140.047,338.814,141.008z M340.402,191.484
			c3.596-0.214,5.778-1.291,6.553-4.624c0.718-3.108,2.055-6.085,2.639-9.211c0.986-5.282,1.597-10.636,2.366-15.961
			c-4.136,6.7-7.443,13.549-10.735,20.407c-0.344,0.717-0.784,1.479-0.817,2.235C340.309,186.569,340.391,188.817,340.402,191.484z"
			/>
		<path fill-rule="evenodd" clip-rule="evenodd" d="M256.727,104.264c-3.37,0.575-5.17-0.825-5.049-4.249
			c0.106-2.966,0.524-5.838-2.773-7.623c-0.606-0.33-1.065-2.069-0.732-2.702c0.358-0.68,1.805-1.263,2.657-1.126
			c4.616,0.739,8.702,2.428,10.593,7.232C262.839,99.386,260.492,103.621,256.727,104.264z"/>
	</g>
</g>
</svg>
